<mxfile host="app.diagrams.net" modified="2023-08-25T14:22:08.056Z" agent="Mozilla/5.0 (X11; Linux x86_64; rv:103.0) Gecko/20100101 Firefox/103.0" etag="RDdEDXH5SWeuhBPAa2WK" version="21.6.9" type="github">
  <diagram id="R2lEEEUBdFMjLlhIrx00" name="Page-1">
    <mxGraphModel dx="1434" dy="644" grid="1" gridSize="10" guides="1" tooltips="1" connect="1" arrows="1" fold="1" page="1" pageScale="1" pageWidth="850" pageHeight="1100" math="0" shadow="0" extFonts="Permanent Marker^https://fonts.googleapis.com/css?family=Permanent+Marker">
      <root>
        <mxCell id="0" />
        <mxCell id="1" parent="0" />
        <mxCell id="XBg0pINRdJ_QslICvwqK-3" value="" style="edgeStyle=orthogonalEdgeStyle;rounded=0;orthogonalLoop=1;jettySize=auto;html=1;" edge="1" parent="1" source="XBg0pINRdJ_QslICvwqK-1" target="XBg0pINRdJ_QslICvwqK-2">
          <mxGeometry relative="1" as="geometry" />
        </mxCell>
        <mxCell id="XBg0pINRdJ_QslICvwqK-1" value="FLORICULTURA" style="rounded=0;whiteSpace=wrap;html=1;" vertex="1" parent="1">
          <mxGeometry x="40" y="90" width="120" height="60" as="geometry" />
        </mxCell>
        <mxCell id="XBg0pINRdJ_QslICvwqK-16" value="" style="edgeStyle=orthogonalEdgeStyle;rounded=0;orthogonalLoop=1;jettySize=auto;html=1;" edge="1" parent="1" source="XBg0pINRdJ_QslICvwqK-2" target="XBg0pINRdJ_QslICvwqK-6">
          <mxGeometry relative="1" as="geometry" />
        </mxCell>
        <mxCell id="XBg0pINRdJ_QslICvwqK-2" value="TEM" style="rhombus;whiteSpace=wrap;html=1;rounded=0;" vertex="1" parent="1">
          <mxGeometry x="260" y="80" width="80" height="80" as="geometry" />
        </mxCell>
        <mxCell id="XBg0pINRdJ_QslICvwqK-9" value="" style="edgeStyle=orthogonalEdgeStyle;rounded=0;orthogonalLoop=1;jettySize=auto;html=1;" edge="1" parent="1" source="XBg0pINRdJ_QslICvwqK-4" target="XBg0pINRdJ_QslICvwqK-8">
          <mxGeometry relative="1" as="geometry" />
        </mxCell>
        <mxCell id="XBg0pINRdJ_QslICvwqK-4" value="CLIENTE" style="swimlane;fontStyle=0;childLayout=stackLayout;horizontal=1;startSize=30;horizontalStack=0;resizeParent=1;resizeParentMax=0;resizeLast=0;collapsible=1;marginBottom=0;whiteSpace=wrap;html=1;" vertex="1" parent="1">
          <mxGeometry x="410" y="80" width="140" height="120" as="geometry" />
        </mxCell>
        <mxCell id="XBg0pINRdJ_QslICvwqK-5" value="RG" style="text;strokeColor=none;fillColor=none;align=left;verticalAlign=middle;spacingLeft=4;spacingRight=4;overflow=hidden;points=[[0,0.5],[1,0.5]];portConstraint=eastwest;rotatable=0;whiteSpace=wrap;html=1;" vertex="1" parent="XBg0pINRdJ_QslICvwqK-4">
          <mxGeometry y="30" width="140" height="30" as="geometry" />
        </mxCell>
        <mxCell id="XBg0pINRdJ_QslICvwqK-6" value="NOME" style="text;strokeColor=none;fillColor=none;align=left;verticalAlign=middle;spacingLeft=4;spacingRight=4;overflow=hidden;points=[[0,0.5],[1,0.5]];portConstraint=eastwest;rotatable=0;whiteSpace=wrap;html=1;" vertex="1" parent="XBg0pINRdJ_QslICvwqK-4">
          <mxGeometry y="60" width="140" height="30" as="geometry" />
        </mxCell>
        <mxCell id="XBg0pINRdJ_QslICvwqK-7" value="TELEFONE" style="text;strokeColor=none;fillColor=none;align=left;verticalAlign=middle;spacingLeft=4;spacingRight=4;overflow=hidden;points=[[0,0.5],[1,0.5]];portConstraint=eastwest;rotatable=0;whiteSpace=wrap;html=1;" vertex="1" parent="XBg0pINRdJ_QslICvwqK-4">
          <mxGeometry y="90" width="140" height="30" as="geometry" />
        </mxCell>
        <mxCell id="XBg0pINRdJ_QslICvwqK-14" value="" style="edgeStyle=orthogonalEdgeStyle;rounded=0;orthogonalLoop=1;jettySize=auto;html=1;" edge="1" parent="1" source="XBg0pINRdJ_QslICvwqK-8" target="XBg0pINRdJ_QslICvwqK-12">
          <mxGeometry relative="1" as="geometry" />
        </mxCell>
        <mxCell id="XBg0pINRdJ_QslICvwqK-20" value="" style="edgeStyle=orthogonalEdgeStyle;rounded=0;orthogonalLoop=1;jettySize=auto;html=1;" edge="1" parent="1" source="XBg0pINRdJ_QslICvwqK-8" target="XBg0pINRdJ_QslICvwqK-19">
          <mxGeometry relative="1" as="geometry" />
        </mxCell>
        <mxCell id="XBg0pINRdJ_QslICvwqK-8" value="COMPRA" style="rhombus;whiteSpace=wrap;html=1;fontStyle=0;startSize=30;" vertex="1" parent="1">
          <mxGeometry x="600" y="120" width="80" height="80" as="geometry" />
        </mxCell>
        <mxCell id="XBg0pINRdJ_QslICvwqK-10" value="PRODUTOS" style="swimlane;fontStyle=0;childLayout=stackLayout;horizontal=1;startSize=30;horizontalStack=0;resizeParent=1;resizeParentMax=0;resizeLast=0;collapsible=1;marginBottom=0;whiteSpace=wrap;html=1;" vertex="1" parent="1">
          <mxGeometry x="770" y="90" width="140" height="120" as="geometry" />
        </mxCell>
        <mxCell id="XBg0pINRdJ_QslICvwqK-11" value="TIPO" style="text;strokeColor=none;fillColor=none;align=left;verticalAlign=middle;spacingLeft=4;spacingRight=4;overflow=hidden;points=[[0,0.5],[1,0.5]];portConstraint=eastwest;rotatable=0;whiteSpace=wrap;html=1;" vertex="1" parent="XBg0pINRdJ_QslICvwqK-10">
          <mxGeometry y="30" width="140" height="30" as="geometry" />
        </mxCell>
        <mxCell id="XBg0pINRdJ_QslICvwqK-12" value="PREÃ‡O" style="text;strokeColor=none;fillColor=none;align=left;verticalAlign=middle;spacingLeft=4;spacingRight=4;overflow=hidden;points=[[0,0.5],[1,0.5]];portConstraint=eastwest;rotatable=0;whiteSpace=wrap;html=1;" vertex="1" parent="XBg0pINRdJ_QslICvwqK-10">
          <mxGeometry y="60" width="140" height="30" as="geometry" />
        </mxCell>
        <mxCell id="XBg0pINRdJ_QslICvwqK-13" value="ESTOQUE" style="text;strokeColor=none;fillColor=none;align=left;verticalAlign=middle;spacingLeft=4;spacingRight=4;overflow=hidden;points=[[0,0.5],[1,0.5]];portConstraint=eastwest;rotatable=0;whiteSpace=wrap;html=1;" vertex="1" parent="XBg0pINRdJ_QslICvwqK-10">
          <mxGeometry y="90" width="140" height="30" as="geometry" />
        </mxCell>
        <mxCell id="XBg0pINRdJ_QslICvwqK-25" value="" style="edgeStyle=orthogonalEdgeStyle;rounded=0;orthogonalLoop=1;jettySize=auto;html=1;" edge="1" parent="1" source="XBg0pINRdJ_QslICvwqK-19" target="XBg0pINRdJ_QslICvwqK-22">
          <mxGeometry relative="1" as="geometry" />
        </mxCell>
        <mxCell id="XBg0pINRdJ_QslICvwqK-19" value="armazenamento" style="rhombus;whiteSpace=wrap;html=1;fontStyle=0;startSize=30;" vertex="1" parent="1">
          <mxGeometry x="590" y="280" width="120" height="90" as="geometry" />
        </mxCell>
        <mxCell id="XBg0pINRdJ_QslICvwqK-21" value="SISTEMA" style="swimlane;fontStyle=0;childLayout=stackLayout;horizontal=1;startSize=30;horizontalStack=0;resizeParent=1;resizeParentMax=0;resizeLast=0;collapsible=1;marginBottom=0;whiteSpace=wrap;html=1;" vertex="1" parent="1">
          <mxGeometry x="600" y="440" width="140" height="90" as="geometry" />
        </mxCell>
        <mxCell id="XBg0pINRdJ_QslICvwqK-22" value="DATA" style="text;strokeColor=none;fillColor=none;align=left;verticalAlign=middle;spacingLeft=4;spacingRight=4;overflow=hidden;points=[[0,0.5],[1,0.5]];portConstraint=eastwest;rotatable=0;whiteSpace=wrap;html=1;" vertex="1" parent="XBg0pINRdJ_QslICvwqK-21">
          <mxGeometry y="30" width="140" height="30" as="geometry" />
        </mxCell>
        <mxCell id="XBg0pINRdJ_QslICvwqK-23" value="PRODUTO" style="text;strokeColor=none;fillColor=none;align=left;verticalAlign=middle;spacingLeft=4;spacingRight=4;overflow=hidden;points=[[0,0.5],[1,0.5]];portConstraint=eastwest;rotatable=0;whiteSpace=wrap;html=1;" vertex="1" parent="XBg0pINRdJ_QslICvwqK-21">
          <mxGeometry y="60" width="140" height="30" as="geometry" />
        </mxCell>
      </root>
    </mxGraphModel>
  </diagram>
</mxfile>
